<svg xmlns="http://www.w3.org/2000/svg" width="1152" height="896" viewBox="0 0 1152 896" version="1.1">
	<path d="M -0 448.001 L -0 896.002 576.250 895.751 L 1152.500 895.500 1152.751 447.750 L 1153.002 0 576.501 0 L 0 0 -0 448.001 M 0.496 448.500 C 0.496 694.900, 0.610 795.551, 0.750 672.168 C 0.890 548.786, 0.890 347.186, 0.750 224.168 C 0.610 101.151, 0.496 202.100, 0.496 448.500 M 362.624 244.602 C 330.090 250.479, 301.275 265.639, 277.403 289.440 C 264.467 302.337, 254.623 315.499, 248.068 328.665 C 230.419 364.109, 227.498 407.293, 240.131 446 C 247.966 470.007, 261.265 491.613, 279.052 509.232 C 301.125 531.098, 327.259 545.331, 357 551.684 C 368.875 554.221, 399.922 554.203, 411.733 551.653 C 431.248 547.439, 447.414 540.810, 462.874 530.680 C 490.915 512.307, 511.623 487.042, 523.264 457 C 527.917 444.994, 527.844 444.904, 519.872 452.834 C 507.683 464.962, 491.092 474.564, 474.284 479.221 C 467.481 481.106, 463.916 481.378, 446 481.381 C 426.868 481.385, 424.833 481.205, 415.500 478.689 C 404.818 475.808, 387.629 467.840, 377 460.841 C 367.638 454.676, 352.003 439.130, 345.628 429.648 C 336.730 416.411, 330.265 402.552, 326.831 389.349 C 324.025 378.561, 323.745 376.067, 323.707 361.500 C 323.663 344.357, 324.715 337.536, 329.624 323.142 C 339.414 294.437, 362.810 268.442, 391.908 253.943 C 400.166 249.828, 410.599 246.063, 414.218 245.892 C 415.473 245.833, 413.125 245.192, 409 244.468 C 399.044 242.721, 372.615 242.797, 362.624 244.602 M 688.450 253.199 C 685.250 259.861, 685.410 259.765, 674.750 261.485 C 672.688 261.818, 671.018 262.408, 671.040 262.795 C 671.062 263.183, 673.355 265.296, 676.135 267.490 L 681.190 271.481 680.511 278.729 L 679.831 285.978 685.016 282.489 C 687.868 280.570, 690.718 279.002, 691.350 279.004 C 691.983 279.007, 694.862 280.800, 697.750 282.989 C 700.638 285.178, 702.993 286.414, 702.985 285.735 C 702.977 285.056, 702.292 281.622, 701.463 278.105 C 700.634 274.588, 700.078 271.623, 700.228 271.515 C 700.378 271.407, 702.885 269.461, 705.800 267.191 L 711.100 263.063 708.300 262.442 C 698.961 260.369, 697.707 259.440, 693.838 251.731 L 691.445 246.962 688.450 253.199 M 789.614 257.077 C 788.614 258.769, 786.495 260.944, 784.905 261.911 L 782.014 263.670 784.604 265.056 C 786.028 265.818, 788.313 267.771, 789.680 269.396 C 791.681 271.775, 792.341 272.073, 793.067 270.925 C 793.564 270.141, 793.976 269.035, 793.985 268.466 C 793.993 267.897, 795.350 266.634, 797 265.659 C 800.640 263.509, 800.745 262.660, 797.548 261.204 C 796.200 260.589, 794.388 258.717, 793.522 257.043 C 792.657 255.370, 791.832 254, 791.690 254 C 791.548 254, 790.613 255.384, 789.614 257.077 M 492.883 259.443 C 491.537 261.284, 491.549 261.664, 492.996 263.057 C 494.464 264.469, 494.753 264.423, 496.117 262.557 C 497.463 260.716, 497.451 260.336, 496.004 258.943 C 494.536 257.531, 494.247 257.577, 492.883 259.443 M 596 262.864 C 596 263.339, 594.845 264.882, 593.434 266.293 C 590.926 268.801, 590.913 268.883, 592.866 269.928 C 593.965 270.517, 595.147 271.887, 595.491 272.973 C 596.069 274.793, 596.389 274.678, 599.559 271.507 C 603.400 267.666, 603.684 267, 601.479 267 C 600.642 267, 599.445 265.875, 598.818 264.500 C 597.719 262.087, 596 261.089, 596 262.864 M 436.470 308.747 L 432.441 316.464 427.470 317.232 C 424.737 317.655, 420.980 318.257, 419.121 318.570 L 415.742 319.139 419.083 322.586 C 420.921 324.482, 423.916 327.038, 425.739 328.266 C 428.459 330.099, 428.943 330.949, 428.438 333 C 428.100 334.375, 427.254 338.753, 426.559 342.730 L 425.295 349.960 433.975 345.294 L 442.654 340.628 449.970 344.846 L 457.286 349.064 456.576 343.782 C 454.585 328.968, 454.025 331.123, 461.402 325.221 C 465.031 322.317, 468 319.569, 468 319.114 C 468 318.660, 464.296 317.979, 459.769 317.601 C 450.102 316.795, 448.724 315.838, 444.499 306.997 C 442.922 303.699, 441.378 301.007, 441.066 301.015 C 440.755 301.023, 438.687 304.502, 436.470 308.747 M 856.500 311.318 C 854.867 314.733, 853.709 315.750, 850.191 316.863 L 845.883 318.227 848.689 319.682 C 853.028 321.933, 855.115 324.151, 856.968 328.474 L 858.670 332.448 860.085 327.987 C 861.237 324.354, 862.328 323.070, 865.962 321.071 L 870.423 318.617 867.802 317.545 C 864.556 316.218, 861 313.077, 861 311.536 C 861 310.902, 860.438 309.652, 859.750 308.759 C 858.655 307.338, 858.253 307.654, 856.500 311.318 M 562.236 312.382 C 561.606 313.764, 559.961 315.635, 558.579 316.540 L 556.067 318.186 559.034 320.682 C 560.665 322.055, 562 323.813, 562 324.589 C 562 326.588, 563.755 326.343, 564.427 324.250 C 564.736 323.288, 566.325 321.607, 567.958 320.516 C 570.881 318.563, 570.895 318.514, 568.808 317.397 C 567.641 316.773, 565.943 314.824, 565.034 313.065 L 563.381 309.869 562.236 312.382 M 750.669 312.249 C 748.924 314.072, 748.920 314.254, 750.584 316.093 C 752.308 317.998, 752.354 317.997, 754.204 316.011 C 756.005 314.079, 756.008 313.928, 754.289 312.168 C 752.555 310.392, 752.444 310.395, 750.669 312.249 M 643.999 326.390 C 643.175 328.096, 641.600 329.943, 640.500 330.495 C 638.617 331.441, 638.749 331.748, 642.750 335.727 C 645.446 338.408, 647 339.385, 647 338.400 C 647 337.545, 648.262 335.584, 649.805 334.042 C 652.445 331.401, 652.501 331.170, 650.773 330.090 C 649.762 329.459, 648.162 327.671, 647.217 326.116 L 645.498 323.290 643.999 326.390 M 724.648 346.345 C 723.629 348.242, 721.309 350.596, 719.492 351.574 L 716.188 353.354 719.924 356.060 C 721.979 357.549, 724.250 360.190, 724.970 361.929 L 726.280 365.090 728.082 361.066 C 729.073 358.852, 731.216 356.231, 732.844 355.241 L 735.803 353.441 732.400 351.211 C 730.529 349.984, 728.436 347.611, 727.749 345.937 L 726.500 342.894 724.648 346.345 M 533.648 349.474 C 532.861 351.527, 535.452 353.365, 536.816 351.721 C 537.624 350.749, 537.426 350.122, 536.038 349.256 C 534.574 348.342, 534.065 348.388, 533.648 349.474 M 793.690 360.372 C 790.902 363.221, 790.895 363.260, 792.804 365.372 C 793.861 366.542, 795.203 368.394, 795.785 369.486 C 796.795 371.380, 796.873 371.355, 797.481 368.931 C 797.832 367.534, 799.147 365.741, 800.405 364.946 L 802.691 363.500 799.595 360.500 L 796.500 357.500 793.690 360.372 M 636 387.326 C 636 388.055, 634.926 389.660, 633.613 390.894 L 631.227 393.136 633.613 395.522 C 634.926 396.835, 636 398.392, 636 398.983 C 636 399.573, 637.500 398.581, 639.333 396.778 L 642.666 393.500 640.333 391.298 C 639.050 390.087, 638 388.399, 638 387.548 C 638 386.696, 637.550 386, 637 386 C 636.450 386, 636 386.597, 636 387.326 M 503.644 391.721 C 502.763 393.425, 501.470 395.015, 500.771 395.255 C 499.942 395.539, 500.565 396.700, 502.565 398.595 L 505.629 401.500 508.785 398.308 C 511.723 395.337, 511.804 395.073, 509.966 394.489 C 508.880 394.145, 507.374 392.684, 506.619 391.243 L 505.246 388.623 503.644 391.721 M 873.168 396.103 C 872.181 397.683, 872.197 398.339, 873.246 399.389 C 874.327 400.470, 874.779 400.461, 875.828 399.339 C 876.857 398.238, 876.842 397.612, 875.750 396.053 C 874.421 394.156, 874.383 394.157, 873.168 396.103 M 692.201 413.459 C 691.564 414.856, 690.498 416, 689.833 416 C 689.167 416, 689.608 416.918, 690.811 418.039 C 692.015 419.160, 693.014 420.623, 693.030 421.289 C 693.047 421.955, 693.553 421.600, 694.155 420.500 C 694.756 419.400, 695.816 418.038, 696.509 417.474 C 697.497 416.670, 697.293 415.851, 695.564 413.683 L 693.359 410.917 692.201 413.459 M 588 418.272 C 587.175 420.047, 585.097 422.201, 583.383 423.058 L 580.266 424.616 583.112 426.250 C 584.678 427.148, 586.819 429.299, 587.871 431.029 L 589.784 434.174 591.542 431.198 C 592.509 429.561, 594.856 427.332, 596.757 426.246 L 600.214 424.270 597.103 423.186 C 595.282 422.551, 593.124 420.630, 591.897 418.551 C 590.745 416.598, 589.734 415.010, 589.651 415.022 C 589.568 415.034, 588.825 416.496, 588 418.272 M 796.220 419.514 C 780.999 426.430, 760.517 443.787, 751.165 457.696 C 741.784 471.647, 735.834 487.354, 733.785 503.579 C 731.208 523.983, 737.463 549.251, 749.657 567.692 C 754.604 575.176, 766.690 587.845, 774.433 593.667 C 792.980 607.611, 819.235 614.814, 841.196 611.985 C 862.287 609.268, 882.391 599.787, 899.010 584.720 L 904.282 579.941 899.391 582.391 C 889.570 587.311, 878.805 589.416, 863.500 589.410 C 852.089 589.406, 848.021 588.993, 841.500 587.176 C 826.046 582.869, 813.684 576.831, 803.498 568.617 C 796.918 563.311, 787.537 552.550, 782.444 544.467 C 780.195 540.898, 777.978 538.321, 777.517 538.739 C 777.056 539.158, 776.972 538.988, 777.329 538.363 C 778.061 537.081, 772.720 524.613, 771.823 525.510 C 771.506 525.827, 770.972 525.368, 770.635 524.491 C 770.232 523.440, 770.418 523.140, 771.181 523.612 C 771.966 524.097, 772.124 523.765, 771.670 522.582 C 771.301 521.622, 771 520.397, 771 519.859 C 771 519.322, 770.480 519.203, 769.845 519.595 C 769.164 520.017, 768.961 519.872, 769.351 519.241 C 769.714 518.653, 769.270 515.096, 768.364 511.336 C 765.931 501.244, 766.183 480.851, 768.866 470.737 C 774.215 450.567, 784.998 433.200, 799.930 420.707 C 805.008 416.458, 803.801 416.070, 796.220 419.514 M 653.771 489.051 C 652.820 490.722, 650.682 492.563, 649.021 493.143 C 647.359 493.722, 646 494.395, 646 494.638 C 646 494.882, 647.005 496.440, 648.233 498.101 C 649.570 499.909, 650.350 502.223, 650.178 503.865 C 649.895 506.566, 649.974 506.607, 655.444 506.554 C 660.686 506.503, 660.998 506.359, 661.004 504 C 661.007 502.608, 662.334 500.086, 663.999 498.311 L 666.988 495.121 663.095 492.933 C 660.953 491.730, 658.630 489.677, 657.932 488.372 C 656.295 485.314, 655.857 485.386, 653.771 489.051 M 568.580 528.481 C 567.608 530.287, 565.617 532.309, 564.157 532.974 L 561.503 534.184 564.239 535.617 C 565.744 536.406, 567.722 538.496, 568.636 540.263 L 570.297 543.474 571.807 540.285 C 572.638 538.531, 574.690 536.432, 576.367 535.619 L 579.416 534.142 576.766 533.477 C 575.033 533.043, 573.464 531.494, 572.232 529.005 L 570.349 525.197 568.580 528.481 M 848 534.559 C 848 535.416, 848.457 535.835, 849.016 535.490 C 849.575 535.144, 849.774 534.443, 849.457 533.931 C 848.600 532.544, 848 532.802, 848 534.559 M 263.141 551.487 C 262.251 553.947, 260.750 555.628, 258.475 556.713 L 255.121 558.313 258.242 559.906 C 259.958 560.783, 262.267 563.268, 263.372 565.429 L 265.382 569.358 266.941 565.659 C 267.798 563.625, 269.841 561.082, 271.481 560.008 L 274.462 558.057 271.411 556.993 C 269.352 556.276, 267.725 554.619, 266.406 551.895 L 264.452 547.861 263.141 551.487 M 665.072 559.085 C 663.776 561.136, 661.654 563.382, 660.358 564.076 C 657.358 565.682, 657.391 566.401, 660.529 567.831 C 661.920 568.465, 664.021 570.616, 665.198 572.610 L 667.338 576.237 668.919 572.889 C 669.788 571.048, 671.875 568.640, 673.555 567.539 L 676.609 565.537 673.555 563.499 C 671.875 562.378, 669.809 560.087, 668.964 558.408 L 667.428 555.356 665.072 559.085 M 481.947 597.298 C 480.825 600.533, 479.509 602.015, 476.084 603.901 C 472.311 605.979, 471.947 606.439, 473.584 607.063 C 476.026 607.992, 480.325 612.641, 482.261 616.445 L 483.760 619.390 485.900 615.196 C 487.093 612.857, 489.823 609.822, 492.073 608.333 L 496.106 605.664 492.833 604.288 C 488.309 602.386, 486.223 600.292, 485.480 596.908 C 484.527 592.570, 483.551 592.678, 481.947 597.298 M 568.189 595.935 C 566.033 600.807, 563.144 603.810, 559.935 604.514 L 556.895 605.182 561.451 608.071 C 564.466 609.983, 566.731 612.451, 568.148 615.367 L 570.289 619.774 572.894 614.637 C 574.660 611.157, 576.541 609.016, 578.728 608 C 580.504 607.175, 581.966 606.231, 581.978 605.902 C 581.990 605.573, 580.271 604.624, 578.158 603.794 C 575.075 602.583, 573.939 601.369, 572.408 597.646 C 571.359 595.095, 570.272 593.006, 569.994 593.004 C 569.716 593.002, 568.904 594.321, 568.189 595.935 M 321.188 598.486 C 320.534 599.922, 318.648 601.665, 316.997 602.359 L 313.996 603.621 317.086 605.906 C 318.786 607.162, 320.785 609.610, 321.529 611.345 L 322.881 614.500 324.022 611.297 C 324.650 609.535, 326.544 607.219, 328.232 606.150 L 331.301 604.207 328.176 602.591 C 326.457 601.702, 324.449 599.827, 323.714 598.425 L 322.378 595.874 321.188 598.486 M 691.004 606.717 C 691.002 607.386, 689.437 609.497, 687.526 611.407 C 684.394 614.539, 684.240 614.941, 685.956 615.486 C 687.004 615.819, 688.742 617.482, 689.819 619.184 C 691.674 622.113, 691.813 622.165, 692.450 620.159 C 692.819 618.994, 694.444 617.260, 696.061 616.305 C 699.535 614.253, 699.736 613.368, 696.931 612.478 C 695.793 612.117, 693.995 610.399, 692.935 608.661 C 691.875 606.922, 691.006 606.048, 691.004 606.717 M 402 616.013 C 402 616.744, 401.255 618.165, 400.345 619.171 C 399.305 620.320, 399.131 621, 399.877 621 C 400.530 621, 401.403 621.916, 401.818 623.036 C 402.537 624.980, 402.661 624.946, 404.565 622.286 L 406.558 619.500 404.279 617.092 C 402.924 615.659, 402 615.222, 402 616.013" stroke="none" fill="black" fill-rule="evenodd"/>
</svg>